<svg width="24" height="24" viewBox="0 0 24 24" fill="none" xmlns="http://www.w3.org/2000/svg">
  <rect width="24" height="24" rx="4" fill="#3B82F6"/>
  <path d="M17 9C17 10.3807 15.8807 11.5 14.5 11.5C13.1193 11.5 12 10.3807 12 9C12 7.61929 13.1193 6.5 14.5 6.5C15.8807 6.5 17 7.61929 17 9Z" stroke="white" stroke-width="2"/>
  <path d="M17 18V16C17 14.3431 15.6569 13 14 13H12M7 9C7 10.3807 8.11929 11.5 9.5 11.5C10.8807 11.5 12 10.3807 12 9C12 7.61929 10.8807 6.5 9.5 6.5C8.11929 6.5 7 7.61929 7 9ZM7 18V16C7 14.3431 8.34315 13 10 13H12M20 19V5" stroke="white" stroke-width="2" stroke-linecap="round" stroke-linejoin="round"/>
  <path d="M4 19V5" stroke="white" stroke-width="2" stroke-linecap="round" stroke-linejoin="round"/>
</svg>